<svg id="Layer_1_Image" data-name="Layer 1 Image" xmlns="http://www.w3.org/2000/svg" viewBox="0 0 581.68 409.71"><path d="M471.22,229.92l6.56.49c11.56.93,22.9,2.93,33.74,7.19,7.14,2.8,13.76,6.46,19.13,12.05s8.24,12,7.72,19.83c-.09,1.42-.38,2.82-.6,4.4,1-.08,1.89-.17,2.8-.23a58.12,58.12,0,0,1,35.28,9c1.31.82,2.47,1.89,3.74,2.79.28.2.86.34,1.08.18,5.5-3.84,11.7-6.05,18.14-7.56,10.68-2.52,21.24-2.26,31.52,2a36.23,36.23,0,0,1,9.58,5.85,55.42,55.42,0,0,1,5.42,4.69c4.76,5.28,6.11,11.64,5.2,18.54-1.22,9.3-5.67,17.15-11.4,24.34a96.26,96.26,0,0,1-23.34,20.84l-1.52,1c.37.43.67.78,1,1.12A37.1,37.1,0,0,1,625,379.05c1.2,13.46-3,25.45-10.19,36.58-.25.39-.48.79-.9,1.47.87-.12,1.43-.22,2-.28,7.1-.79,14.2-1.61,21.3-2.34a111.73,111.73,0,0,1,11.39-.88,125.38,125.38,0,0,1,17.35.73c14.43,2.05,28.17,6.18,39.85,15.47,11.32,9,18,20.64,19.42,35.08,1,10.06-.86,19.74-4.4,29.13-4.49,11.91-11.49,22.27-19.83,31.77a157.29,157.29,0,0,1-34.25,28.91,3.09,3.09,0,0,0-1.56,2.22c-1.6,8.32-6.62,14.12-13.75,18.26a48.53,48.53,0,0,1-18.5,5.85,80,80,0,0,1-16.52.28c-14.12-1.11-28.27-1.13-42.42-.84-10.3.21-20.61.71-30.89,1.38-9.69.64-19.36,1.56-29,2.53-9.41,1-18.84,1.87-28.21,3.23q-16.59,2.42-33.06,5.59c-32.85,6.35-65,15.41-97.14,24.68-12.78,3.69-25.57,7.32-38.65,9.83a268.92,268.92,0,0,1-29.66,4,162.6,162.6,0,0,1-31.58-1c-7.11-.82-14.21-1.74-21-4.15a80.19,80.19,0,0,1-8.78-3.8,3,3,0,0,0-3.52.29,98.41,98.41,0,0,1-28.4,14.17,52.85,52.85,0,0,1-17.14,2.31c-13.94-.5-24-10-25.3-23.86-.86-9,1.09-17.48,4.22-25.79,4.63-12.25,11.59-23.11,19.77-33.25,1.15-1.42,2.33-2.82,3.67-4.45l-2.72-.49c-8-1.47-15.22-4.56-21.18-10.21-6.52-6.17-10-13.87-11.15-22.67-1.51-11.52,1-22.41,5.4-33a100.54,100.54,0,0,1,12.58-22,19.73,19.73,0,0,1,3.18-3.4c1-.81.86-1.29.19-2.18a33.38,33.38,0,0,1-6.23-12.72c-2.75-12.1-.31-23.25,6.56-33.46A57,57,0,0,1,186.48,394a91.87,91.87,0,0,1,31-10.16c5.48-.79,11-1.11,16.56-1.69a1.75,1.75,0,0,0,1.25-.65c3.4-6.47,8.1-12.07,12.26-18,7-10,14.07-19.92,21.93-29.26a385.87,385.87,0,0,1,33.61-34.54,127.1,127.1,0,0,1,27.95-19.69,75.78,75.78,0,0,1,26.7-8.4c1.54-.17,3.11-.18,4.65-.39a2,2,0,0,0,1.42-.8c3.92-7.46,9.9-12.95,16.62-17.8,5.14-3.71,11-6,16.65-8.7a146,146,0,0,1,45.66-12.49c4.92-.56,9.87-.83,14.8-1.24.48,0,.95-.13,1.42-.19ZM187.35,541.69c1.32,0,2.64-.06,4,0a5.57,5.57,0,0,1,5.14,7,11.79,11.79,0,0,1-2.42,3.77c-4.26,5-8.83,9.69-12.83,14.86-7.28,9.38-13.21,19.57-16.69,31-1.74,5.73-2.72,11.58-1.78,17.58,1.23,7.86,6.1,11.85,13.63,12.56,6.06.56,11.9-.66,17.6-2.65a94.06,94.06,0,0,0,23.75-12.73c4.06-2.93,7.94-3.24,12.27-.56a40.54,40.54,0,0,0,11.48,4.67c9.66,2.43,19.55,3.24,29.46,3.79a105.25,105.25,0,0,0,13.17-.18c6.31-.46,12.65-1,18.89-2,8.48-1.37,17-2.88,25.28-5,13.53-3.43,26.94-7.36,40.39-11.15,23.74-6.69,47.56-13.11,71.7-18.24,13.32-2.83,26.69-5.34,40.16-7.28,8.08-1.16,16.2-2,24.32-3q11.7-1.29,23.43-2.34,9.59-.86,19.2-1.43,10-.6,20.09-.95c4.87-.17,9.75-.22,14.62-.23,4.51,0,9,.08,13.54.16,4.92.08,9.83.19,14.74.29l.6,0c5.41.18,10.77,1.18,16.24.74,5.92-.49,11.72-1.4,17.1-4,6.15-3,10.26-7.45,10.41-14.77a5.85,5.85,0,0,1,5-5.88,3.32,3.32,0,0,0,1.29-.58,146.39,146.39,0,0,0,31.53-26.5,100.85,100.85,0,0,0,14.58-21.12c5.19-10.21,8.28-20.88,7.07-32.48a37.66,37.66,0,0,0-4.32-14.07c-4.31-8-10.83-13.74-18.78-17.92a75,75,0,0,0-34-8.36c-4.9-.09-9.82.13-14.72.38-5.57.29-11.15.65-16.7,1.22a84.6,84.6,0,0,0-22.09,4.84c-2.31.89-4.53.71-6.26-1.23a5.8,5.8,0,0,1-1.24-6.55,49.57,49.57,0,0,1,4.17-7c1.33-1.94,3.06-3.59,4.41-5.52,6.83-9.74,10.7-20.36,9.29-32.46a26.45,26.45,0,0,0-4.9-12.56,30.83,30.83,0,0,0-7.11-6.52,5.25,5.25,0,0,1-.93-8,23,23,0,0,1,4.53-3.65c10.12-6,19.17-13.23,26.25-22.73,3.51-4.7,6.45-9.72,7.65-15.54a12.13,12.13,0,0,0,.25-5.07,18.68,18.68,0,0,0-5.17-8.75c-5.26-5.33-11.86-7.68-19.13-8.24a46.74,46.74,0,0,0-23.4,4.26c-3.47,1.59-6.9,3.33-10.66,4.12a7.59,7.59,0,0,1-3.73-.15,24.18,24.18,0,0,1-5.37-2.59A53.94,53.94,0,0,0,556.33,286a42,42,0,0,0-14.21-1.39c-3.57.3-7.17.46-10.75.5-2.36,0-4.72-.53-5.54-3.1s-1.27-5.22.11-7.88a13.37,13.37,0,0,0,1.25-9.17c-.89-4.11-3.44-7.14-6.56-9.75-5-4.18-10.86-6.81-17-8.83A115.11,115.11,0,0,0,471.93,241a154.39,154.39,0,0,0-15.81.18c-6.23.4-12.46,1.08-18.65,1.93-9.68,1.34-19.06,4-28.39,6.87-8.14,2.5-15.39,6.7-22.34,11.5-4.5,3.11-8.63,6.62-11.62,11.26a7.65,7.65,0,0,0-1.3,3.37c-.24,3.34-2.43,5.8-5.76,5.83-5.48,0-10.92.27-16.2,2-3.25,1-6.66,1.71-9.8,3A100.19,100.19,0,0,0,314.64,304c-9.32,8.06-18,16.78-26.52,25.68-10.48,10.92-19.55,23-28.31,35.27-4.51,6.34-9.18,12.56-13.81,18.82-1.06,1.43-2.39,2.7-3.3,4.22a6.26,6.26,0,0,1-5.59,3.16c-4.14,0-8.3,0-12.43.29A82.9,82.9,0,0,0,200.54,397c-9.33,3.63-17.72,8.71-24.18,16.52a31.45,31.45,0,0,0-7.72,20.51c0,6.42,1.73,12.45,3.77,18.42,1,2.94,2.25,5.8,3.33,8.72.43,1.16.4,2.45-.71,3.15A6.49,6.49,0,0,0,173,467c-.71,1.24-1.44,2.48-2.26,3.65a95.51,95.51,0,0,0-12.11,22.2c-3.09,8.38-4.81,16.95-3.32,25.91,1.41,8.47,5.75,15,13.43,19C174.54,540.83,180.85,541.77,187.35,541.69Z" transform="translate(-143.81 -229.92)"/><path d="M242.76,561.79c-1,.68-1.94,1.34-2.88,2q-15.12,11.29-30.22,22.62c-1.88,1.41-3.63,3-5.46,4.47-1.55,1.24-3.22,2.34-5.31,2.11a5.61,5.61,0,0,1-2.67-1.08c-1.37-1.08-2.51-2.47-3.87-3.58a3.55,3.55,0,0,1-1.06-4.52,74.68,74.68,0,0,1,4.53-8.81c7.78-12.45,16.64-24.13,25.61-35.73a305.3,305.3,0,0,1,28-31.34c7.85-7.69,15.81-15.28,24.07-22.52,7.05-6.19,14.57-11.84,21.93-17.66A40.61,40.61,0,0,1,301.1,464a5.16,5.16,0,0,1,5.48.26c1,.63,2.11,1.14,3.08,1.83,1.73,1.26,1.88,3,.35,4.5-3.89,3.85-7.88,7.6-11.74,11.47q-7.33,7.35-14.51,14.83c-7.09,7.43-14.21,14.84-21.13,22.43Q249.7,533.53,237.09,548c-3.34,3.81-6.34,7.91-9.47,11.91-.49.63-1.29,1.46-.53,2.21s1.34-.24,1.93-.63a272.32,272.32,0,0,1,35-19.6c1.12-.53,2.25-1,3.39-1.49a2.2,2.2,0,0,1,2.71.66c1.81,2.18,3.64,4.34,5.31,6.62.36.49.2,1.45.1,2.16-.28,2-.75,3.91-1,5.89-.14,1.32.31,1.82,1.65,1.76a29.75,29.75,0,0,0,7.09-.75c11.08-3.27,21.81-7.4,31.26-14.25a213,213,0,0,0,29-25.63,96.93,96.93,0,0,0,13.4-17,37.24,37.24,0,0,0,5-12.48c.9-4.86-.57-8.84-3.85-12.39a45.23,45.23,0,0,0-23-13.23,81.33,81.33,0,0,0-14.89-2.2,142.06,142.06,0,0,0-24.4.84A166.61,166.61,0,0,0,247,473.66a185.14,185.14,0,0,0-37.51,21.79A52.17,52.17,0,0,0,198.62,506a10.88,10.88,0,0,0-1.48,2.85c-.46,1.3-.09,1.81,1.25,1.59A45.19,45.19,0,0,0,205,509c7.45-2.42,14.45-5.92,21.41-9.48a130.09,130.09,0,0,0,17.41-10.29c2.39-1.73,4.71-3.55,7.1-5.28a10,10,0,0,1,2.24-1.12c1-.4,1.65,0,1.54,1.14a5,5,0,0,1-.7,2.26,90.41,90.41,0,0,1-5.7,8.13,114.8,114.8,0,0,1-19.23,18.48A55.93,55.93,0,0,1,207.78,523c-6.26,1.41-11.73-.22-16.78-3.91-4.18-3-7.35-6.74-8.28-12a24.12,24.12,0,0,1,1.54-12.9c2.42-6.35,6.63-11.43,11.56-16,7.36-6.74,15.76-12,24.5-16.68A155.08,155.08,0,0,1,250.92,449q12.29-3.54,24.77-6.33a122.86,122.86,0,0,1,22.06-2.82c12-.45,23.95.17,35.63,3.22,7.24,1.9,14.29,4.44,20.41,8.89,9.48,6.9,16.22,15.84,19.34,27.31,1.39,5.1.72,10.12-.56,15.11-2.28,8.83-6.42,16.82-11.11,24.55a174.2,174.2,0,0,1-25.77,32.67c-3.33,3.33-6.94,6.38-10.43,9.55a10,10,0,0,1-1.07.72l.34.46c2.12-.61,4.25-1.2,6.37-1.85,15.59-4.81,31.38-8.92,47.29-12.56,9.38-2.14,18.77-4.28,28.22-6.12,7.53-1.47,15.14-2.57,22.74-3.71,5.86-.88,11.75-1.63,17.64-2.32,4.39-.52,8.8-1,13.21-1.26,8.44-.51,16.89-1,25.34-1.22,6.34-.16,12.69.1,19,.2,2.23,0,4.47.14,6.7.26,6.58.33,13.15.7,19.73,1,8.49.41,17,.71,25.47,1.19,7.74.44,15.48.88,23.19,1.63,6.42.64,12.81,1.7,19.2,2.66a11.93,11.93,0,0,1,3.25,1.16,1.41,1.41,0,0,1,.69,1.09c-.05.35-.56.73-1,.9a3.13,3.13,0,0,1-1.4.22q-8.09-.25-16.18-.55c-2.83-.1-5.67-.28-8.5-.33-7.4-.13-14.79-.37-22.19-.25-8.54.14-17.09.52-25.63,1q-11.12.62-22.2,1.66c-9.49.91-19,1.73-28.42,3.17-7.44,1.14-14.76,3.1-22.11,4.79-20.32,4.69-40.28,10.69-60.21,16.78-15.2,4.65-30.38,9.36-45.87,12.9-9,2.07-18.15,3.79-27.26,5.49-6.3,1.17-12.64,2.13-19,3-4.06.58-8.16.87-12.24,1.31a138.68,138.68,0,0,1-20.58.64c-7.8-.31-15.58-.92-23.07-3.51-5.83-2-8.09-5.3-8.78-11.54-.59-5.39,1.39-10.08,4.05-14.57.3-.51.61-1,.92-1.52Z" transform="translate(-143.81 -229.92)"/><path d="M339.52,427.19c1.34,1.48,2.52,2.77,3.68,4.07a15.55,15.55,0,0,1,1.6,1.94,5.55,5.55,0,0,1,.47,1.51,5.71,5.71,0,0,1-1.54,0c-3.12-.81-6.18-1.87-9.33-2.48-5-.95-10-1.7-15-2.38s-9.82-1.33-14.75-1.65q-12.07-.81-24.17-1.14c-6.2-.15-12.4,0-18.59.13a2.27,2.27,0,0,0-1.42.41c-8.79,7.9-19.1,13.26-29.86,17.84-5.76,2.46-11.59,4.75-17.79,5.81A29.5,29.5,0,0,1,188.47,445c-3.89-3.13-5.63-7.43-4.29-12.38a14.43,14.43,0,0,1,3.27-5.48c5.31-6,12.13-9.77,19.51-12.6a103,103,0,0,1,23.16-5.6,222,222,0,0,1,25-1.65,2.46,2.46,0,0,0,1.59-.75q17.47-20.62,34.89-41.32c10.76-12.79,21.27-25.79,32.94-37.78,6-6.17,12.37-11.92,20-16.17,7.85-4.41,16.2-7.1,25.25-7.14a14.67,14.67,0,0,1,10.78,4.76c3.05,3.19,3.52,7.18,2,11.28-1.59,4.38-4.53,7.94-7.41,11.52-9.2,11.44-21.33,18.74-34.57,24.41A74.8,74.8,0,0,1,329.64,360a68.77,68.77,0,0,1-9.45,1.21,6.73,6.73,0,0,1-1.68-.34,16.84,16.84,0,0,1,1.84-1.44,143.13,143.13,0,0,0,18.23-12.12c10.32-8,20.27-16.4,29.05-26.1a44,44,0,0,0,4.53-6.29c.51-.82.39-2,.56-3a15.3,15.3,0,0,0-2.88.11c-6.42,1.47-11.69,5.19-16.93,8.9-7.45,5.29-13.62,12-19.65,18.76-8,9-14.54,19-21.7,28.65q-11.78,15.81-23.78,31.45c-1.91,2.5-4.15,4.76-6.24,7.13l-.92,1c1.77.21,3.32.42,4.89.56,5.84.51,11.7.93,17.53,1.53a74.6,74.6,0,0,1,18.84,4.19c4.67,1.76,8.44,5,12.25,8.07l.74.61c.05,0,.15,0,.22,0s.1-.16.08-.21c-3.61-8.17-2.75-16.17,1-24,3.21-6.72,7.87-12.4,13.1-17.6a73.37,73.37,0,0,1,26.34-17.25,31,31,0,0,1,11-2.07c4.42,0,9.85,3.95,11.19,8.14a8.27,8.27,0,0,1-.61,5.94,23.68,23.68,0,0,1-5.7,7.64,82.23,82.23,0,0,1-27.92,17.45,16.49,16.49,0,0,1-2.63.78,4.78,4.78,0,0,1-5.34-2,2.18,2.18,0,0,0-3.32-.55c-3.05,3.44-5.57,7.19-6.06,11.94a5,5,0,0,0,.22,1.88,2.59,2.59,0,0,0,2.84,2.05,63,63,0,0,0,22.58-5.16c9.07-3.77,17.41-8.86,25.66-14.11,4.58-2.91,9.12-5.9,13.56-9,3.05-2.14,5.86-4.6,8.84-6.83q7.86-5.88,15.81-11.64c1.62-1.17,3.45-2.07,5.14-3.16s3.44-.35,5.06.33c.9.38.83,1.25.34,1.93a27.22,27.22,0,0,1-2.75,3.47c-2.95,2.92-6.08,5.68-9,8.65-3.4,3.48-6.72,7.06-9.92,10.73a73.78,73.78,0,0,0-5.07,6.81,8.29,8.29,0,0,0-.69,2.51,7.93,7.93,0,0,0,2.46-.6c3.84-2.5,7.75-4.93,11.39-7.71,5.17-3.95,10.14-8.16,15.15-12.33,1.56-1.3,2.92-2.84,4.39-4.26.86-.83,1.68-1.71,2.61-2.47a2.68,2.68,0,0,1,3.78-.06,3.28,3.28,0,0,1,.42,4.08c-1.13,1.6-2.32,3.17-3.51,4.73a166.86,166.86,0,0,0-13.83,20.43,52.35,52.35,0,0,0-5.13,11.52c-.45,1.67-.82,3.37.24,5,.5.8,1.06,1,1.76.5a88.29,88.29,0,0,0,7.95-5.7c7.41-6.47,13.68-14,19.71-21.73,3.89-5,7.6-10.08,11.27-15.21a40.23,40.23,0,0,0,6.24-12.32,15.22,15.22,0,0,1,1.52-3.37c.76-1.3,1.7-1.33,2.63-.11a17.19,17.19,0,0,1,2.77,6.68,17.8,17.8,0,0,1-2.1,13.36,125.6,125.6,0,0,1-15.61,21.77,130.13,130.13,0,0,1-22.57,20.53,36.41,36.41,0,0,1-12.55,6,16.62,16.62,0,0,1-7.36.09c-4.26-.93-6.76-4.24-7-9a25.8,25.8,0,0,1,2.82-12.7,14.37,14.37,0,0,0,.65-2.05l-.36-.35a10.28,10.28,0,0,0-2.15,1c-5.86,4.5-11.72,9-17.52,13.58a6.48,6.48,0,0,1-8.27-.14,16.48,16.48,0,0,1-3-3.67c-1.2-1.88-.68-3.93-.13-5.91.15-.56.35-1.12.59-1.87-2.54,1.58-4.88,3.1-7.27,4.52-8.43,5-16.92,9.94-26.16,13.37a47.41,47.41,0,0,1-14.86,3.35,16.71,16.71,0,0,1-7.5-1.15A4.91,4.91,0,0,0,339.52,427.19Zm-104.4.75-.15-.28c-.72,0-1.44,0-2.15,0A109.29,109.29,0,0,0,205,432.86a30.74,30.74,0,0,0-9.54,4.29c-1.07.79-2.15,1.77-1.82,3.25s1.79,1.75,3,1.92a31.86,31.86,0,0,0,11.88-.65,64.1,64.1,0,0,0,21.13-9.77C231.49,430.62,233.29,429.26,235.12,427.94Zm149.67-57.17a3.25,3.25,0,0,0-1,.18,45,45,0,0,0-5.89,2.83,106.57,106.57,0,0,0-17.65,15.06,16.17,16.17,0,0,0-2,2.79c-.43.7-.15,1.22.72,1a10.63,10.63,0,0,0,3.18-.93c3.21-1.84,6.43-3.68,9.47-5.79,4.63-3.21,9.18-6.56,12.92-10.83a10.29,10.29,0,0,0,1.66-2.73C386.61,371.35,386.11,370.78,384.79,370.77Z" transform="translate(-143.81 -229.92)"/><path d="M655.35,492.64c.64-.25,1.31-.44,1.92-.75a197.9,197.9,0,0,0,23.59-14.61c4.71-3.31,9.31-6.76,14-10.14.28-.21.57-.4.85-.59a3.67,3.67,0,0,1,.12,6c-11.44,9.42-22.78,19-34.39,28.19a132.1,132.1,0,0,1-27.35,17.1,24.53,24.53,0,0,1-11.79,2.57c-7.46-.46-12.55-4.48-14.23-11.75a49.31,49.31,0,0,1-1-8.06,4.4,4.4,0,0,1,4.52-4.68c.5,1.08,1,2.16,1.48,3.22,1.82,3.74,5.07,5.14,9,5.66,6.09.81,10.11-2.35,13.43-6.85a53.14,53.14,0,0,0,10-25.68c.11-1,.16-1.91.23-2.86s-.54-1.51-1.51-1.6a5.66,5.66,0,0,0-4,1.33c-3.8,2.92-7.7,5.73-11.3,8.89-16.45,14.4-34.23,26.83-53.93,36.4-5.89,2.86-12,5.3-18.48,6.25a31.52,31.52,0,0,1-8.34.23c-5.74-.7-8.89-4.43-10.14-9.87a27.44,27.44,0,0,1,.65-15,7.32,7.32,0,0,0,.23-.8c0-.07,0-.15-.07-.39l-3.45,2.79a229.25,229.25,0,0,1-23.12,17.07c-3.76,2.34-7.58,4.58-11.91,5.73s-8.72,1.07-12.69-1.74a6.73,6.73,0,0,1-3.06-7.34c.76-3.91,1.61-7.8,2.41-11.7.08-.41.08-.84.12-1.25l-.33-.23a24.54,24.54,0,0,0-1.83,1.7,95.36,95.36,0,0,1-19,16.35c-3.25,2.18-6.62,4.15-10.54,4.94a6.74,6.74,0,0,1-6.1-1.65,11,11,0,0,1-3-12.43c.52-1.4,1.2-2.73,1.95-4.42-2.59,1.95-4.88,3.72-7.22,5.42-5.75,4.18-11.58,8.24-18.12,11.14a23.43,23.43,0,0,1-9.65,1.95c-3.3,0-5.24-1.79-5.94-5.38a14.26,14.26,0,0,1,.88-8.9c1.09-2.39,2.11-4.81,3.17-7.22.42-.93.21-1.32-.79-1.15a3.34,3.34,0,0,0-1.56.78q-5,4.43-9.87,8.92a58.36,58.36,0,0,1-11.49,8.59c-2.32,1.27-4.68,2.28-7.49,2-4.65-.53-6.09-3.86-5.62-7.84.56-4.7,2.65-8.84,4.94-12.87a112,112,0,0,1,27.9-32.56,20.34,20.34,0,0,1,5.9-3c2.44-.84,5.66,1.44,5.93,4a3.6,3.6,0,0,1-.63,2.23,31.79,31.79,0,0,1-3,3.59c-4.5,4.77-9.14,9.41-13.5,14.3a54,54,0,0,0-4.71,7,6.94,6.94,0,0,0-.72,1.76c-.44,1.51.41,2.5,1.87,2a21.54,21.54,0,0,0,4.92-2.39,406.58,406.58,0,0,0,35.3-27c1.53-1.34,2.93-2.84,4.37-4.28a3.22,3.22,0,0,0,.84-1.15,4,4,0,0,1,3.91-2.85,57.22,57.22,0,0,1,7.38.52,4,4,0,0,1,1.8.87,1.49,1.49,0,0,1,.36,2.37c-1.31,1.52-2.58,3.06-4,4.47-5.34,5.35-10.86,10.53-16.05,16-3.92,4.14-7.53,8.59-11.11,13a15.31,15.31,0,0,0-2.21,4.58c-.42,1.22.25,1.79,1.46,1.37a20.37,20.37,0,0,0,3.06-1.36,473,473,0,0,0,52.94-34,37.17,37.17,0,0,1,3.79-2.74c7.58-4.11,14.9-8.84,23.68-10.18.82-.13,1.66-.18,2.5-.29a5.55,5.55,0,0,1,5.92,3.14c.27.48.55.94.86,1.47A181.84,181.84,0,0,1,531.2,441.4a250.88,250.88,0,0,1,34.29-35.14c3.93-3.27,8.12-6.24,13-7.92a18.14,18.14,0,0,1,5.37-.94,2.44,2.44,0,0,1,2.6,3.27,24.76,24.76,0,0,1-2,5.7,54.82,54.82,0,0,1-9.68,12.76q-10.77,10.92-22,21.41c-10.91,10.17-21.92,20.24-32,31.26a162,162,0,0,0-18.32,23.35,26.24,26.24,0,0,0-4,9c-.1.55-.13,1.51.13,1.64a2.45,2.45,0,0,0,1.88,0q3.15-1.45,6.17-3.15c16-8.94,31.47-18.76,46.58-29.11,2.79-1.91,5.15-4.43,7.84-6.5,6.65-5.11,13.78-9.39,21.95-11.63,3.2-.87,6.5-1.66,9.8-.85a12.33,12.33,0,0,1,9.46,8.72c.51,1.69-.08,3.33-.71,4.89a19.65,19.65,0,0,1-4.45,6.47A79.25,79.25,0,0,1,566.38,494a8.78,8.78,0,0,1-2.34.42,4.37,4.37,0,0,1-4.07-2,2.25,2.25,0,0,0-3.74-.31c-2.74,3.23-5,6.76-5.7,11a6.19,6.19,0,0,0,.24,2.59,2.52,2.52,0,0,0,2.8,1.93,62.44,62.44,0,0,0,21.92-4.89c8.91-3.61,17.07-8.62,25.22-13.64a253.69,253.69,0,0,0,33.17-25q5.34-4.63,10.63-9.34a22.47,22.47,0,0,0,2.51-2.56,5.71,5.71,0,0,1,6.44-2.24c2.53.71,5.09,1.29,7.59,2.08,1.49.46,2.18,1.47,2.16,3.25a89.51,89.51,0,0,1-5.36,30.23c-.67,1.83-1.54,3.59-2.3,5.39-.19.46-.32.95-.47,1.43ZM512.58,466.19c-1,0-1.64-.06-2.26,0a24.09,24.09,0,0,0-9.09,3.15A105.7,105.7,0,0,0,476.39,489c-3,3.13-5.59,6.65-8.28,10.07a10.2,10.2,0,0,0-1.25,2.81c-.37,1,.22,1.14,1,.92a5.22,5.22,0,0,0,1.4-.64c1.55-1,3.14-1.92,4.6-3,13.14-9.82,25.5-20.57,37.68-31.54A10.33,10.33,0,0,0,512.58,466.19ZM562.23,485l.33.44a13.51,13.51,0,0,0,3.24-.83c3-1.58,5.9-3.18,8.67-5a78.43,78.43,0,0,0,13.9-11.33,13.32,13.32,0,0,0,2.15-3.4c.43-.9-.07-1.45-1.07-1.46a3.26,3.26,0,0,0-1.29.18,30.39,30.39,0,0,0-5.58,2.64c-3.82,2.75-7.55,5.64-11.11,8.72-2.86,2.47-5.44,5.28-8.08,8A9.3,9.3,0,0,0,562.23,485Z" transform="translate(-143.81 -229.92)"/><path d="M487.45,325.49c-1.48,1.18-2.83,2.27-4.19,3.37-5.73,4.61-11.48,9.18-17.93,12.78a19.66,19.66,0,0,1-9.16,2.81c-3,.08-3.95-1.82-4.39-3.79-.67-3.05.37-5.72,1.67-8.38q1.64-3.33,3.07-6.75a13.66,13.66,0,0,0,.47-2.72,8,8,0,0,0-1.43.63c-7.23,5.53-14.48,11.06-20.68,17.8a8.24,8.24,0,0,0-.82,1c-1,1.49-2.25,1.57-3.77.91a2.61,2.61,0,0,1-1.34-3.72A98.83,98.83,0,0,1,434,330a320.76,320.76,0,0,1,25.45-34.33c4.89-5.86,10-11.49,15.08-17.23l.72-.86a6.66,6.66,0,0,0-.89-.06c-4.37.36-8.75.72-13.13,1.14a2.45,2.45,0,0,0-1.31.72c-.89.91-1.7,1.9-2.56,2.85C445.16,295.53,433,308.87,421.75,323c-4.83,6.09-9.28,12.5-13.81,18.83a10.5,10.5,0,0,0-1.42,3.47c-.64,2.54-2,3.16-4.16,1.81-4.5-2.78-5.86-6.78-4-11.86,1.73-4.72,4.6-8.75,7.69-12.63,6.79-8.49,14.59-16,22.45-23.47,6.75-6.4,13.64-12.67,20.47-19,.65-.6,1.33-1.17,2-1.76l-.16-.4c-1.13.05-2.27.07-3.39.18l-21.69,2.13-15,1.46a1.42,1.42,0,0,0-.36,0c-3.17,1.15-5.78-.07-8.18-2a40.91,40.91,0,0,1-4.31-3.78c-2.15-2.34-1.27-4.15,1.2-5.28a66.12,66.12,0,0,1,14.32-4.55c.38-.08,1.2.26,1.23.48.19,1.55,1.26,1.22,2.16,1.07,2.28-.38,4.55-.85,6.82-1.28,4.62-.86,9.26-1.64,13.87-2.58,5-1,10-2.34,15.09-3.27,5.25-1,10.52-1.92,15.83-2.36,6.4-.54,12.84-.74,19.26-.67,5.42.05,10.81.8,15.72,3.47a12.29,12.29,0,0,1,5.65,5.48c1.3,2.78.56,5.11-1.84,7a7.45,7.45,0,0,1-4.8,1.39c-3.27.11-6.55,0-9.83.09a2.61,2.61,0,0,0-1.66.63c-10.72,10.57-21.49,21.11-31.34,32.53-2.53,2.92-4.81,6.06-7.18,9.12a8.52,8.52,0,0,0-.72,1.45l.22.25c.58-.35,1.19-.65,1.74-1.05l13.31-9.8c1.23-.89,2.44-1.81,3.74-2.59a7.17,7.17,0,0,1,6-.55c1.51.46,1.73,1.43.82,2.77-3,4.4-6,8.74-8.91,13.2-1.8,2.82-3.36,5.8-4.91,8.76a5.94,5.94,0,0,0-.2,2.26,9.41,9.41,0,0,0,2-.52,252,252,0,0,0,25.82-15.79c4-2.78,7.93-5.79,11.89-8.68A44.54,44.54,0,0,1,516.56,300a15.14,15.14,0,0,1,7.42-.77,8.72,8.72,0,0,1,6,4.84c.84,1.57.41,3.12-.26,4.61-1.32,2.93-3.63,5-6,7.06a55.15,55.15,0,0,1-17.06,10c-2,.73-3.86,1-5.33-1.14a1.35,1.35,0,0,0-2.21-.05,14.83,14.83,0,0,0-4,7.51c-.37,2.52.68,3.36,3.21,3.19,8.94-.58,16.78-4.2,24.36-8.6,10.05-5.84,19.52-12.57,29-19.35l2.62-1.86c1.47,1.11,1.56,2.6.12,4-2.67,2.53-5.35,5-8.13,7.46a160.4,160.4,0,0,1-33.09,22.28,48.18,48.18,0,0,1-15.32,5.21,12.35,12.35,0,0,1-6.37-.56c-3.57-1.45-4.74-4.48-5.22-8a19.16,19.16,0,0,1,1-9.31,2.64,2.64,0,0,0,.13-.46A2,2,0,0,0,487.45,325.49Zm15.64-5.72.29.51a18.89,18.89,0,0,0,2.82-.89,61.28,61.28,0,0,0,12.71-8.9A25.64,25.64,0,0,0,522.1,307c.28-.35.17-1,.25-1.54a4,4,0,0,0-1.46-.16,12.71,12.71,0,0,0-3,1.22A67.17,67.17,0,0,0,504.24,318,11.11,11.11,0,0,0,503.09,319.77Z" transform="translate(-143.81 -229.92)"/><path d="M511.24,405.54c-.48.46-1,.88-1.45,1.38a95.25,95.25,0,0,1-21,17.68,42.43,42.43,0,0,1-7.08,3.43c-5.32,2.07-9.26-1.21-11-5.62a11,11,0,0,1,.14-8.3,50,50,0,0,1,6.91-11.45c11.59-15.17,25.58-27.54,42.65-36.25a41.48,41.48,0,0,1,14.39-4.56c4.2-.46,5.6.22,7.62,4,.09.17.2.34.27.45a272.67,272.67,0,0,1,44-49.81c4.42-3.93,9.08-7.61,14.56-10a24.34,24.34,0,0,1,5.93-1.67c3.24-.5,4.51,1.09,3.78,4.32a22.33,22.33,0,0,1-4,8.09,119.46,119.46,0,0,1-15.34,17.44c-9.67,9.1-19.47,18.06-29.1,27.2-10.71,10.16-21,20.74-29.87,32.59a68,68,0,0,0-8.25,13.15,24.17,24.17,0,0,0-1.36,4.68c-.22,1,.4,1.48,1.41,1.17a11.47,11.47,0,0,0,2.52-1.08c8.6-5,17.35-9.71,25.72-15,13.05-8.34,25.83-17.09,38.73-25.67,1.15-.76,1.39-.73,2.11.48.94,1.59.61,3.36-1.08,4.93-2.69,2.51-5.35,5.07-8.17,7.42-11.36,9.46-22.72,18.93-34.21,28.23a113.89,113.89,0,0,1-18.61,12.4,25.13,25.13,0,0,1-12,3.37,12.39,12.39,0,0,1-9.11-4.11c-1.82-1.91-1.52-4.3-1.1-6.59.64-3.41,1.44-6.78,2.15-10.17.13-.62.19-1.26.29-1.89Zm-20,4.43.32.29a7.36,7.36,0,0,0,1.64-.46,33.45,33.45,0,0,0,4-2.43c5-3.81,10-7.55,14.81-11.58,8-6.76,15.91-13.71,23.85-20.59a14.16,14.16,0,0,0,1.22-1.34l-.17-.31a17.92,17.92,0,0,0-1.94,0,26.31,26.31,0,0,0-10.55,3.95A113.2,113.2,0,0,0,496.74,401a62.88,62.88,0,0,0-4.55,6.29A12,12,0,0,0,491.22,410Z" transform="translate(-143.81 -229.92)"/></svg>